STARTFONT 2.1
COMMENT
COMMENT Converted from OpenType font "UVNBaiSau_N.TTF" by "otf2bdf 3.0".
COMMENT
FONT -FreeType-UVN Bai Sau Nang-Medium-R-Normal--22-160-100-100-P-116-ISO10646-1
SIZE 16 100 100
FONTBOUNDINGBOX 22 32 -1 -7
STARTPROPERTIES 19
FOUNDRY "FreeType"
FAMILY_NAME "UVN Bai Sau Nang"
WEIGHT_NAME "Medium"
SLANT "R"
SETWIDTH_NAME "Normal"
ADD_STYLE_NAME ""
PIXEL_SIZE 22
POINT_SIZE 160
RESOLUTION_X 100
RESOLUTION_Y 100
SPACING "P"
AVERAGE_WIDTH 116
CHARSET_REGISTRY "ISO10646"
CHARSET_ENCODING "1"
FONT_ASCENT 24
FONT_DESCENT 6
COPYRIGHT "(c) Copyright 2001 by Tom Truong. All Rights Reserved"
_OTF_FONTFILE "UVNBaiSau_N.TTF"
_OTF_PSNAME "UVNBaiSauNang"
ENDPROPERTIES
CHARS 261
STARTCHAR 0020
ENCODING 32
SWIDTH 270 0
DWIDTH 6 0
BBX 0 0 0 0
BITMAP
ENDCHAR
STARTCHAR 0021
ENCODING 33
SWIDTH 315 0
DWIDTH 7 0
BBX 5 16 1 0
BITMAP
F8
F8
F8
F8
F8
78
78
78
78
78
00
70
78
F8
F8
78
ENDCHAR
STARTCHAR 0022
ENCODING 34
SWIDTH 360 0
DWIDTH 8 0
BBX 6 6 1 10
BITMAP
EC
EC
EC
EC
EC
EC
ENDCHAR
STARTCHAR 0023
ENCODING 35
SWIDTH 765 0
DWIDTH 17 0
BBX 17 16 0 0
BITMAP
01CF00
01CE00
038E00
039E00
1FFF80
3FFF80
3FFF00
0E3800
0E3800
7FFE00
7FFE00
FFFC00
1CE000
38E000
38E000
39C000
ENDCHAR
STARTCHAR 0024
ENCODING 36
SWIDTH 585 0
DWIDTH 13 0
BBX 9 18 2 -1
BITMAP
0C00
0C00
3F80
7F80
FF80
FF80
F800
7C00
3F00
1F80
0F80
0F80
FF80
FF80
FF00
0C00
0C00
0C00
ENDCHAR
STARTCHAR 0025
ENCODING 37
SWIDTH 855 0
DWIDTH 19 0
BBX 19 16 0 0
BITMAP
1C0300
3F0700
7F0600
778C00
E39800
779800
7F3000
3E6000
08E780
00CFC0
019FE0
039CE0
031CE0
061FE0
0E1FC0
0C0F80
ENDCHAR
STARTCHAR 0026
ENCODING 38
SWIDTH 765 0
DWIDTH 17 0
BBX 17 16 1 0
BITMAP
0FF000
3FF000
3FF000
3FF000
1F0200
3F0E00
7F9F00
7FDF00
FFFF00
FBFE00
F9FE00
FCFC00
7FFC00
7FFE00
3FFF00
1FDF80
ENDCHAR
STARTCHAR 0027
ENCODING 39
SWIDTH 180 0
DWIDTH 4 0
BBX 3 6 1 10
BITMAP
E0
E0
E0
E0
E0
E0
ENDCHAR
STARTCHAR 0028
ENCODING 40
SWIDTH 405 0
DWIDTH 9 0
BBX 7 23 1 -7
BITMAP
04
0E
0E
1E
3C
3C
78
78
78
F0
F0
F0
F0
F0
78
78
78
78
3C
3E
1E
0E
04
ENDCHAR
STARTCHAR 0029
ENCODING 41
SWIDTH 405 0
DWIDTH 9 0
BBX 7 22 1 -6
BITMAP
60
F0
F0
78
7C
3C
3C
1E
1E
1E
1E
1E
1E
1E
3E
3C
3C
78
78
F0
F0
60
ENDCHAR
STARTCHAR 002A
ENCODING 42
SWIDTH 450 0
DWIDTH 10 0
BBX 9 9 1 7
BITMAP
1C00
5D00
7F00
FF80
3E00
FF80
EB80
5D00
1C00
ENDCHAR
STARTCHAR 002B
ENCODING 43
SWIDTH 810 0
DWIDTH 18 0
BBX 13 13 3 0
BITMAP
0700
0700
0700
0700
0700
FFF8
FFF8
FFF8
0700
0700
0700
0700
0700
ENDCHAR
STARTCHAR 002C
ENCODING 44
SWIDTH 270 0
DWIDTH 6 0
BBX 6 7 0 -3
BITMAP
7C
78
78
78
70
F0
F0
ENDCHAR
STARTCHAR 002D
ENCODING 45
SWIDTH 360 0
DWIDTH 8 0
BBX 7 4 1 4
BITMAP
FE
FE
FE
FE
ENDCHAR
STARTCHAR 002E
ENCODING 46
SWIDTH 270 0
DWIDTH 6 0
BBX 5 5 1 0
BITMAP
70
F8
F8
F8
F0
ENDCHAR
STARTCHAR 002F
ENCODING 47
SWIDTH 405 0
DWIDTH 9 0
BBX 10 18 0 -2
BITMAP
01C0
01C0
0180
0380
0380
0700
0700
0E00
0E00
1C00
1C00
3800
3800
7000
7000
6000
E000
E000
ENDCHAR
STARTCHAR 0030
ENCODING 48
SWIDTH 585 0
DWIDTH 13 0
BBX 11 16 1 0
BITMAP
1F00
3F80
7FC0
FFE0
FBE0
F3E0
F3E0
F3E0
F3E0
F3E0
F3E0
FBE0
FFE0
FFE0
7FC0
3F80
ENDCHAR
STARTCHAR 0031
ENCODING 49
SWIDTH 585 0
DWIDTH 13 0
BBX 7 16 3 0
BITMAP
FE
FE
FE
FE
3E
3E
3E
3E
3E
3E
3E
3E
3E
3E
3E
3E
ENDCHAR
STARTCHAR 0032
ENCODING 50
SWIDTH 585 0
DWIDTH 13 0
BBX 11 16 1 0
BITMAP
1E00
7F80
7FC0
FFE0
FBE0
F3E0
FBE0
F7C0
6FC0
1F80
3F00
7E00
FFE0
FFE0
FFE0
FFE0
ENDCHAR
STARTCHAR 0033
ENCODING 51
SWIDTH 585 0
DWIDTH 13 0
BBX 11 16 1 0
BITMAP
FF00
FFC0
FFE0
FFE0
FFC0
0FC0
1F00
3F80
3FC0
3FE0
03E0
07E0
FFE0
FFC0
FFC0
FF00
ENDCHAR
STARTCHAR 0034
ENCODING 52
SWIDTH 585 0
DWIDTH 13 0
BBX 13 16 0 0
BITMAP
03C0
07A0
0FA0
0F60
1FE0
1EE0
3DE0
7DE0
79E0
FFF8
FFF8
FFF8
7FF8
03E0
03E0
03E0
ENDCHAR
STARTCHAR 0035
ENCODING 53
SWIDTH 585 0
DWIDTH 13 0
BBX 11 16 1 0
BITMAP
7FC0
7FC0
7FC0
7FC0
7FC0
7800
7F80
7FC0
7FE0
7FE0
03E0
07E0
FFE0
FFC0
FF80
FF00
ENDCHAR
STARTCHAR 0036
ENCODING 54
SWIDTH 585 0
DWIDTH 13 0
BBX 11 16 1 0
BITMAP
0F80
0F80
1F00
1F00
3E00
3E00
7DC0
7FE0
FBE0
FFE0
F1E0
FBE0
FFE0
FFE0
7FC0
3F00
ENDCHAR
STARTCHAR 0037
ENCODING 55
SWIDTH 585 0
DWIDTH 13 0
BBX 11 16 1 0
BITMAP
FF00
FFE0
FFE0
FFE0
FFE0
07C0
07C0
7FC0
7FC0
7FC0
0F80
1F00
1F00
1F00
3E00
3E00
ENDCHAR
STARTCHAR 0038
ENCODING 56
SWIDTH 585 0
DWIDTH 13 0
BBX 11 16 1 0
BITMAP
1F00
3F80
7FC0
FFE0
FBE0
FBE0
7FC0
7FC0
FFE0
FBE0
F1E0
FBE0
FFE0
FFE0
7FC0
3F80
ENDCHAR
STARTCHAR 0039
ENCODING 57
SWIDTH 585 0
DWIDTH 13 0
BBX 11 16 1 0
BITMAP
0F00
3F80
7FC0
FFE0
FFE0
F1E0
F3E0
FBE0
FFE0
77C0
3FC0
0F80
1F80
1F00
3F00
3E00
ENDCHAR
STARTCHAR 003A
ENCODING 58
SWIDTH 315 0
DWIDTH 7 0
BBX 5 11 1 0
BITMAP
70
F8
F8
F8
70
00
70
F8
F8
F8
70
ENDCHAR
STARTCHAR 003B
ENCODING 59
SWIDTH 315 0
DWIDTH 7 0
BBX 5 14 1 -3
BITMAP
70
F8
F8
F8
70
00
00
78
F8
F0
F0
F0
E0
E0
ENDCHAR
STARTCHAR 003C
ENCODING 60
SWIDTH 810 0
DWIDTH 18 0
BBX 13 13 3 0
BITMAP
0038
00F8
03F8
1FE0
7F80
FC00
F000
FE00
7F80
0FF0
03F8
0078
0018
ENDCHAR
STARTCHAR 003D
ENCODING 61
SWIDTH 810 0
DWIDTH 18 0
BBX 13 8 3 3
BITMAP
FFF8
FFF8
FFF8
0000
0000
FFF8
FFF8
FFF8
ENDCHAR
STARTCHAR 003E
ENCODING 62
SWIDTH 810 0
DWIDTH 18 0
BBX 13 13 3 0
BITMAP
C000
F800
FE00
3F80
0FF0
03F8
00F8
03F8
1FE0
7F80
FC00
F000
8000
ENDCHAR
STARTCHAR 003F
ENCODING 63
SWIDTH 495 0
DWIDTH 11 0
BBX 11 16 0 0
BITMAP
1F00
7FC0
7FC0
FFE0
7FE0
03E0
1FE0
1FE0
1FC0
1F80
1F00
0E00
1F00
1F00
1F00
0E00
ENDCHAR
STARTCHAR 0040
ENCODING 64
SWIDTH 990 0
DWIDTH 22 0
BBX 20 20 1 -4
BITMAP
01FF00
07FF80
1F03C0
3C00E0
780070
70F730
E3FE30
E39E30
C70E30
C71E30
C71C70
C71C70
E73CE0
E7EFC0
73CF00
780080
3C03C0
1FFF80
07FE00
00E000
ENDCHAR
STARTCHAR 0041
ENCODING 65
SWIDTH 630 0
DWIDTH 14 0
BBX 12 16 1 0
BITMAP
0F00
3FC0
7FE0
7FF0
FFF0
F9F0
F9F0
FFF0
FFF0
FFF0
FFF0
F9F0
F9F0
F9F0
F9F0
F9F0
ENDCHAR
STARTCHAR 0042
ENCODING 66
SWIDTH 585 0
DWIDTH 13 0
BBX 12 16 1 0
BITMAP
0F00
3FC0
7FE0
FFE0
FBE0
F9E0
FFE0
FFC0
FFE0
FFF0
F9F0
F9F0
FFF0
FFF0
FFE0
FFC0
ENDCHAR
STARTCHAR 0043
ENCODING 67
SWIDTH 495 0
DWIDTH 11 0
BBX 10 16 1 0
BITMAP
00C0
0FC0
3FC0
7FC0
7FC0
FC00
F800
F800
F000
F800
F800
FFC0
7FC0
3FC0
1FC0
07C0
ENDCHAR
STARTCHAR 0044
ENCODING 68
SWIDTH 630 0
DWIDTH 14 0
BBX 13 16 1 0
BITMAP
F800
FF80
FFC0
FFE0
FFF0
FBF0
F9F8
F8F8
F8F8
F8F8
F9F8
FFF0
FFF0
FFE0
FFC0
FF00
ENDCHAR
STARTCHAR 0045
ENCODING 69
SWIDTH 495 0
DWIDTH 11 0
BBX 10 16 1 0
BITMAP
00C0
0FC0
3FC0
7FC0
7FC0
FC00
FFC0
FFC0
FFC0
FFC0
F800
FE00
7FC0
3FC0
1FC0
07C0
ENDCHAR
STARTCHAR 0046
ENCODING 70
SWIDTH 450 0
DWIDTH 10 0
BBX 9 16 1 0
BITMAP
0780
3F80
7F80
FF80
FF80
F800
F800
FF80
FF80
FF80
FF80
F800
F800
F800
F800
F800
ENDCHAR
STARTCHAR 0047
ENCODING 71
SWIDTH 765 0
DWIDTH 17 0
BBX 16 16 1 0
BITMAP
07C0
1FF0
3FFC
7FF8
FFF0
FC20
F9FF
F1FF
F1FF
F9FE
F83E
FEFE
7FFC
3FFC
1FF8
0FE0
ENDCHAR
STARTCHAR 0048
ENCODING 72
SWIDTH 630 0
DWIDTH 14 0
BBX 12 16 1 0
BITMAP
F9F0
F9F0
F9F0
F9F0
F9F0
F9F0
FFF0
FFF0
FFF0
FFF0
F9F0
F9F0
F9F0
F9F0
F9F0
F9F0
ENDCHAR
STARTCHAR 0049
ENCODING 73
SWIDTH 315 0
DWIDTH 7 0
BBX 5 16 1 0
BITMAP
F8
F8
F8
F8
F8
F8
F8
F8
F8
F8
F8
F8
F8
F8
F8
F8
ENDCHAR
STARTCHAR 004A
ENCODING 74
SWIDTH 405 0
DWIDTH 9 0
BBX 9 16 0 0
BITMAP
0F80
0F80
0F80
0F80
0F80
0F80
0F80
0F80
0F80
0F80
0F80
1F80
FF00
FF00
FE00
FC00
ENDCHAR
STARTCHAR 004B
ENCODING 75
SWIDTH 585 0
DWIDTH 13 0
BBX 12 16 1 0
BITMAP
F9F0
F9F0
F9F0
FBE0
FBE0
FFE0
FFC0
FFE0
FFF0
FBF0
F9F0
F9F0
F9F0
F9F0
F9F0
F9F0
ENDCHAR
STARTCHAR 004C
ENCODING 76
SWIDTH 405 0
DWIDTH 9 0
BBX 9 16 1 0
BITMAP
F800
F800
F800
F800
F800
F800
F800
F800
F800
F800
F800
FC00
FF80
7F80
7F80
1F80
ENDCHAR
STARTCHAR 004D
ENCODING 77
SWIDTH 810 0
DWIDTH 18 0
BBX 18 16 0 0
BITMAP
1E0F00
3F1F80
3F1F80
3F3F80
7FBF80
7FBFC0
7FBFC0
7FBFC0
7FFFC0
7FF7C0
79F7C0
79F7C0
79F3C0
79E3C0
F8E3C0
F8E3C0
ENDCHAR
STARTCHAR 004E
ENCODING 78
SWIDTH 675 0
DWIDTH 15 0
BBX 13 16 1 0
BITMAP
70F8
F8F8
FCF8
FCF8
FEF8
FFF8
FFF8
FFF8
FFF8
FFF8
FFF8
FBF8
FBF8
F9F8
F8F8
F8F0
ENDCHAR
STARTCHAR 004F
ENCODING 79
SWIDTH 765 0
DWIDTH 17 0
BBX 16 16 1 0
BITMAP
07C0
1FF0
3FF8
7FFC
FFFE
FC7E
F83E
F81F
F81F
F83F
F83E
FFFE
7FFC
3FFC
1FF8
0FE0
ENDCHAR
STARTCHAR 0050
ENCODING 80
SWIDTH 585 0
DWIDTH 13 0
BBX 12 16 1 0
BITMAP
0F00
3FC0
7FE0
FFE0
FFF0
F9F0
F9F0
FFE0
FFE0
FFC0
FF80
F800
F800
F800
F800
F800
ENDCHAR
STARTCHAR 0051
ENCODING 81
SWIDTH 765 0
DWIDTH 17 0
BBX 16 18 1 -2
BITMAP
07C0
1FF0
3FF8
7FFC
FFFE
FC7E
F83E
F81F
F81F
FBFF
FBFE
FBFE
7BFC
7BFC
1BF8
0BE0
03C0
03C0
ENDCHAR
STARTCHAR 0052
ENCODING 82
SWIDTH 585 0
DWIDTH 13 0
BBX 12 16 1 0
BITMAP
0F00
3FC0
7FE0
FFF0
FFF0
F9F0
F9F0
FFE0
FFE0
FFF0
FFF0
F9F0
F9F0
F9F0
F9F0
F9F0
ENDCHAR
STARTCHAR 0053
ENCODING 83
SWIDTH 540 0
DWIDTH 12 0
BBX 10 16 1 0
BITMAP
07C0
7FC0
FFC0
FFC0
FFC0
F800
FC00
7F00
3F80
1FC0
07C0
FFC0
FFC0
FFC0
FF80
FF00
ENDCHAR
STARTCHAR 0054
ENCODING 84
SWIDTH 495 0
DWIDTH 11 0
BBX 11 16 0 0
BITMAP
FFE0
FFE0
FFE0
FFE0
FFE0
1F00
1F00
1F00
1F00
1F00
1F00
1F00
1F00
1F00
1F00
1F00
ENDCHAR
STARTCHAR 0055
ENCODING 85
SWIDTH 630 0
DWIDTH 14 0
BBX 12 16 1 0
BITMAP
F9F0
F9F0
F9F0
F9F0
F9F0
F9F0
F9F0
F9F0
F9F0
F9F0
F9F0
FFF0
FFF0
7FE0
3FC0
1F80
ENDCHAR
STARTCHAR 0056
ENCODING 86
SWIDTH 540 0
DWIDTH 12 0
BBX 13 16 0 0
BITMAP
F8F8
F8F8
F8F0
F9F0
F9F0
79F0
7DE0
7DE0
7DE0
3FE0
3FE0
3FC0
3FC0
1FC0
1F80
0F80
ENDCHAR
STARTCHAR 0057
ENCODING 87
SWIDTH 900 0
DWIDTH 20 0
BBX 19 16 1 0
BITMAP
F9F3E0
F9F3E0
F9F3E0
F9F3E0
F9F3E0
F9F3E0
F9F3E0
F9F3E0
F9F3E0
F9F3E0
F9F3E0
FBF7C0
FFFFC0
7FFFC0
3FFF80
1F3F00
ENDCHAR
STARTCHAR 0058
ENCODING 88
SWIDTH 630 0
DWIDTH 14 0
BBX 14 16 0 0
BITMAP
8004
F87C
FCFC
FFFC
FFFC
1FE0
0FC0
07C0
07C0
0FC0
0FE0
FFFC
FFFC
FFFC
FCFC
F01C
ENDCHAR
STARTCHAR 0059
ENCODING 89
SWIDTH 540 0
DWIDTH 12 0
BBX 11 16 1 0
BITMAP
FBE0
FBE0
FBE0
FBE0
FBE0
FBE0
FFE0
FFE0
7FC0
7FC0
1F00
1F00
1F00
1F00
1F00
1F00
ENDCHAR
STARTCHAR 005A
ENCODING 90
SWIDTH 540 0
DWIDTH 12 0
BBX 12 16 0 0
BITMAP
7F80
7FE0
7FF0
7FF0
7FF0
03E0
07E0
0FC0
1F80
3F00
7E00
7FF0
FFF0
FFF0
7FF0
3FF0
ENDCHAR
STARTCHAR 005B
ENCODING 91
SWIDTH 405 0
DWIDTH 9 0
BBX 6 21 2 -5
BITMAP
FC
FC
FC
F0
F0
F0
F0
F0
F0
F0
F0
F0
F0
F0
F0
F0
F0
F0
FC
FC
FC
ENDCHAR
STARTCHAR 005C
ENCODING 92
SWIDTH 405 0
DWIDTH 9 0
BBX 11 18 -1 -2
BITMAP
E000
7000
7000
3800
3800
1C00
1C00
0E00
0E00
0700
0700
0300
0380
0380
01C0
01C0
00E0
00E0
ENDCHAR
STARTCHAR 005D
ENCODING 93
SWIDTH 405 0
DWIDTH 9 0
BBX 6 21 1 -5
BITMAP
FC
FC
FC
3C
3C
3C
3C
3C
3C
3C
3C
3C
3C
3C
3C
3C
3C
3C
3C
FC
FC
ENDCHAR
STARTCHAR 005E
ENCODING 94
SWIDTH 990 0
DWIDTH 22 0
BBX 12 6 5 10
BITMAP
0F00
1F80
3FC0
3DE0
78E0
F070
ENDCHAR
STARTCHAR 005F
ENCODING 95
SWIDTH 495 0
DWIDTH 11 0
BBX 11 3 0 -5
BITMAP
FFE0
FFE0
FFE0
ENDCHAR
STARTCHAR 0060
ENCODING 96
SWIDTH 495 0
DWIDTH 11 0
BBX 5 4 2 13
BITMAP
E0
70
30
18
ENDCHAR
STARTCHAR 0061
ENCODING 97
SWIDTH 540 0
DWIDTH 12 0
BBX 11 12 1 0
BITMAP
0400
3F80
7FC0
FFC0
FFE0
F3E0
F3E0
FBE0
FFE0
FFE0
7FE0
1FE0
ENDCHAR
STARTCHAR 0062
ENCODING 98
SWIDTH 540 0
DWIDTH 12 0
BBX 11 16 1 0
BITMAP
F000
F000
F000
F000
F000
F780
F7C0
F7E0
F7E0
F3E0
F1E0
FBE0
FFE0
7FC0
7FC0
1F00
ENDCHAR
STARTCHAR 0063
ENCODING 99
SWIDTH 360 0
DWIDTH 8 0
BBX 7 11 1 0
BITMAP
3E
7E
FE
FE
F0
F0
F8
FE
FE
7E
1E
ENDCHAR
STARTCHAR 0064
ENCODING 100
SWIDTH 540 0
DWIDTH 12 0
BBX 11 16 1 0
BITMAP
03E0
03E0
03E0
03E0
03E0
3FE0
7FE0
FFE0
FFE0
F3E0
F3E0
FBE0
FFE0
FFC0
7F80
3F00
ENDCHAR
STARTCHAR 0065
ENCODING 101
SWIDTH 540 0
DWIDTH 12 0
BBX 11 12 1 0
BITMAP
0400
3F80
7FC0
FFE0
F3E0
FFC0
F700
F480
FFC0
FFE0
7FC0
1F00
ENDCHAR
STARTCHAR 0066
ENCODING 102
SWIDTH 360 0
DWIDTH 8 0
BBX 7 16 1 0
BITMAP
0E
7E
FE
FE
F0
FE
FE
FE
F0
F0
F0
F0
F0
F0
F0
F0
ENDCHAR
STARTCHAR 0067
ENCODING 103
SWIDTH 540 0
DWIDTH 12 0
BBX 11 16 1 -5
BITMAP
3F80
7FC0
FFC0
FFE0
F3E0
F3E0
FBE0
FFE0
FFE0
7FE0
3FE0
03E0
FFE0
FFC0
FF80
7F00
ENDCHAR
STARTCHAR 0068
ENCODING 104
SWIDTH 540 0
DWIDTH 12 0
BBX 10 16 1 0
BITMAP
F000
F000
F000
F000
F200
FF80
FFC0
FFC0
FFC0
F3C0
F3C0
F3C0
F3C0
F3C0
F3C0
F3C0
ENDCHAR
STARTCHAR 0069
ENCODING 105
SWIDTH 270 0
DWIDTH 6 0
BBX 6 17 0 0
BITMAP
78
7C
FC
78
38
00
78
78
78
78
78
78
78
78
78
78
78
ENDCHAR
STARTCHAR 006A
ENCODING 106
SWIDTH 270 0
DWIDTH 6 0
BBX 7 22 -1 -5
BITMAP
3C
3E
3E
3C
1C
00
3C
3C
3C
3C
3C
3C
3C
3C
3C
3C
3C
3C
FC
FC
F8
F0
ENDCHAR
STARTCHAR 006B
ENCODING 107
SWIDTH 540 0
DWIDTH 12 0
BBX 11 16 1 0
BITMAP
F000
F000
F000
F000
F000
F3E0
F3C0
F7C0
FF80
FF00
FFC0
FFC0
F3E0
F3E0
F3E0
F3E0
ENDCHAR
STARTCHAR 006C
ENCODING 108
SWIDTH 270 0
DWIDTH 6 0
BBX 4 16 1 0
BITMAP
F0
F0
F0
F0
F0
F0
F0
F0
F0
F0
F0
F0
F0
F0
F0
F0
ENDCHAR
STARTCHAR 006D
ENCODING 109
SWIDTH 765 0
DWIDTH 17 0
BBX 16 11 1 1
BITMAP
3FFC
7FFE
FFFF
FFFF
F3CF
F3CF
F3CF
F3CF
F3CF
F3CF
F3CF
ENDCHAR
STARTCHAR 006E
ENCODING 110
SWIDTH 540 0
DWIDTH 12 0
BBX 10 12 1 0
BITMAP
0400
3F00
7F80
FFC0
FFC0
F3C0
F3C0
F3C0
F3C0
F3C0
F3C0
F3C0
ENDCHAR
STARTCHAR 006F
ENCODING 111
SWIDTH 540 0
DWIDTH 12 0
BBX 11 12 1 0
BITMAP
0400
3F00
7FC0
FFC0
FFE0
F3E0
F3E0
FBE0
FFE0
FFC0
7F80
3F00
ENDCHAR
STARTCHAR 0070
ENCODING 112
SWIDTH 540 0
DWIDTH 12 0
BBX 11 16 1 -5
BITMAP
3F80
7FC0
FFC0
FFE0
FBE0
F1E0
F3E0
F7E0
F7C0
F7C0
F700
F000
F000
F000
F000
F000
ENDCHAR
STARTCHAR 0071
ENCODING 113
SWIDTH 540 0
DWIDTH 12 0
BBX 11 16 1 -5
BITMAP
3F00
7FC0
FFC0
FFE0
F3E0
F3E0
FBE0
FFE0
FFE0
7FE0
3FE0
03E0
03E0
03E0
03E0
03E0
ENDCHAR
STARTCHAR 0072
ENCODING 114
SWIDTH 405 0
DWIDTH 9 0
BBX 8 11 1 0
BITMAP
F7
FF
FF
FF
FC
F8
F8
F8
F8
F8
F8
ENDCHAR
STARTCHAR 0073
ENCODING 115
SWIDTH 405 0
DWIDTH 9 0
BBX 8 11 1 0
BITMAP
7F
FF
FF
F8
FC
7E
1F
FF
FF
FF
FE
ENDCHAR
STARTCHAR 0074
ENCODING 116
SWIDTH 360 0
DWIDTH 8 0
BBX 6 14 1 0
BITMAP
F0
F0
F0
FC
FC
FC
FC
F0
F0
F0
FC
FC
7C
3C
ENDCHAR
STARTCHAR 0075
ENCODING 117
SWIDTH 540 0
DWIDTH 12 0
BBX 10 11 1 0
BITMAP
F3C0
F3C0
F3C0
F3C0
F3C0
F3C0
F3C0
FFC0
FFC0
7F80
3F00
ENDCHAR
STARTCHAR 0076
ENCODING 118
SWIDTH 450 0
DWIDTH 10 0
BBX 11 11 0 0
BITMAP
F1E0
F1E0
FBE0
7BC0
7BC0
7BC0
7BC0
3F80
3F80
3F80
1F00
ENDCHAR
STARTCHAR 0077
ENCODING 119
SWIDTH 765 0
DWIDTH 17 0
BBX 16 11 1 0
BITMAP
F3CF
F3CF
F3CF
F3CF
F3CF
F3CF
F3CF
FFFF
FFFE
7FFE
3E7C
ENDCHAR
STARTCHAR 0078
ENCODING 120
SWIDTH 450 0
DWIDTH 10 0
BBX 10 11 0 0
BITMAP
F3C0
FFC0
FFC0
FFC0
1F00
1F00
3F00
FFC0
FFC0
FBC0
F1C0
ENDCHAR
STARTCHAR 0079
ENCODING 121
SWIDTH 540 0
DWIDTH 12 0
BBX 10 16 1 -5
BITMAP
F3C0
F3C0
F3C0
F3C0
F3C0
F3C0
F3C0
FFC0
FFC0
7F80
3F00
1E00
1E00
1E00
1E00
1E00
ENDCHAR
STARTCHAR 007A
ENCODING 122
SWIDTH 450 0
DWIDTH 10 0
BBX 10 11 0 0
BITMAP
7FC0
7FC0
7FC0
0FC0
1F80
3F00
7E00
7FC0
FFC0
FFC0
7FC0
ENDCHAR
STARTCHAR 007B
ENCODING 123
SWIDTH 495 0
DWIDTH 11 0
BBX 8 20 2 -4
BITMAP
1F
3F
3F
3C
3C
3C
3C
3C
7C
F8
F0
F8
3C
3C
3C
3C
3C
3F
3F
1F
ENDCHAR
STARTCHAR 007C
ENCODING 124
SWIDTH 495 0
DWIDTH 11 0
BBX 3 22 4 -5
BITMAP
E0
E0
E0
E0
E0
E0
E0
E0
E0
E0
E0
E0
E0
E0
E0
E0
E0
E0
E0
E0
E0
E0
ENDCHAR
STARTCHAR 007D
ENCODING 125
SWIDTH 495 0
DWIDTH 11 0
BBX 9 20 1 -4
BITMAP
F800
FC00
FC00
3C00
3C00
3C00
3C00
3C00
3E00
1F80
0F80
1F80
3C00
3C00
3C00
3C00
3C00
FC00
FC00
F800
ENDCHAR
STARTCHAR 007E
ENCODING 126
SWIDTH 810 0
DWIDTH 18 0
BBX 15 5 2 4
BITMAP
3E02
FFFE
FFFE
C3FC
8020
ENDCHAR
STARTCHAR 00C0
ENCODING 192
SWIDTH 630 0
DWIDTH 14 0
BBX 12 21 1 0
BITMAP
1C00
0E00
0600
0300
0000
0F00
3FC0
7FE0
7FF0
FFF0
F9F0
F9F0
FFF0
FFF0
FFF0
FFF0
F9F0
F9F0
F9F0
F9F0
F9F0
ENDCHAR
STARTCHAR 00C1
ENCODING 193
SWIDTH 630 0
DWIDTH 14 0
BBX 12 21 1 0
BITMAP
0380
0300
0600
0C00
0000
0F00
3FC0
7FE0
7FF0
FFF0
F9F0
F9F0
FFF0
FFF0
FFF0
FFF0
F9F0
F9F0
F9F0
F9F0
F9F0
ENDCHAR
STARTCHAR 00C2
ENCODING 194
SWIDTH 630 0
DWIDTH 14 0
BBX 12 20 1 0
BITMAP
0F00
0F80
1980
10C0
0F00
3FC0
7FE0
7FF0
FFF0
F9F0
F9F0
FFF0
FFF0
FFF0
FFF0
F9F0
F9F0
F9F0
F9F0
F9F0
ENDCHAR
STARTCHAR 00C3
ENCODING 195
SWIDTH 630 0
DWIDTH 14 0
BBX 12 21 1 0
BITMAP
00C0
1F80
1F80
1000
0000
0F00
3FC0
7FE0
7FF0
FFF0
F9F0
F9F0
FFF0
FFF0
FFF0
FFF0
F9F0
F9F0
F9F0
F9F0
F9F0
ENDCHAR
STARTCHAR 00C4
ENCODING 196
SWIDTH 630 0
DWIDTH 14 0
BBX 12 21 1 0
BITMAP
0880
1DC0
1DC0
0800
0000
0F00
3FC0
7FE0
7FF0
FFF0
F9F0
F9F0
FFF0
FFF0
FFF0
FFF0
F9F0
F9F0
F9F0
F9F0
F9F0
ENDCHAR
STARTCHAR 00C5
ENCODING 197
SWIDTH 630 0
DWIDTH 14 0
BBX 12 21 1 0
BITMAP
0F00
1980
1980
0D80
0F00
0F00
3FC0
7FE0
7FF0
FFF0
F9F0
F9F0
FFF0
FFF0
FFF0
FFF0
F9F0
F9F0
F9F0
F9F0
F9F0
ENDCHAR
STARTCHAR 00C6
ENCODING 198
SWIDTH 810 0
DWIDTH 18 0
BBX 17 16 1 0
BITMAP
0F0080
3FDF80
7FFF80
7FFF80
FFFF80
F9F800
FFFF80
FFFF80
FFFF80
FFFF80
F9F000
F9FC00
F9FF80
F9FF80
F9FF80
F9F780
ENDCHAR
STARTCHAR 00C7
ENCODING 199
SWIDTH 495 0
DWIDTH 11 0
BBX 10 21 1 -5
BITMAP
00C0
0FC0
3FC0
7FC0
7FC0
FC00
F800
F800
F000
F800
F800
FFC0
7FC0
3FC0
1FC0
07C0
0200
0380
00C0
08C0
0F80
ENDCHAR
STARTCHAR 00C8
ENCODING 200
SWIDTH 495 0
DWIDTH 11 0
BBX 10 21 1 0
BITMAP
0C00
0E00
0600
0300
0000
00C0
0FC0
3FC0
7FC0
7FC0
FC00
FFC0
FFC0
FFC0
FFC0
F800
FE00
7FC0
3FC0
1FC0
07C0
ENDCHAR
STARTCHAR 00C9
ENCODING 201
SWIDTH 495 0
DWIDTH 11 0
BBX 10 21 1 0
BITMAP
0380
0300
0600
0600
0000
00C0
0FC0
3FC0
7FC0
7FC0
FC00
FFC0
FFC0
FFC0
FFC0
F800
FE00
7FC0
3FC0
1FC0
07C0
ENDCHAR
STARTCHAR 00CA
ENCODING 202
SWIDTH 495 0
DWIDTH 11 0
BBX 10 20 1 0
BITMAP
0700
0D80
0980
18C0
00C0
0FC0
3FC0
7FC0
7FC0
FC00
FFC0
FFC0
FFC0
FFC0
F800
FE00
7FC0
3FC0
1FC0
07C0
ENDCHAR
STARTCHAR 00CB
ENCODING 203
SWIDTH 495 0
DWIDTH 11 0
BBX 10 21 1 0
BITMAP
0880
1DC0
1DC0
0880
0000
00C0
0FC0
3FC0
7FC0
7FC0
FC00
FFC0
FFC0
FFC0
FFC0
F800
FE00
7FC0
3FC0
1FC0
07C0
ENDCHAR
STARTCHAR 00CC
ENCODING 204
SWIDTH 315 0
DWIDTH 7 0
BBX 5 21 1 0
BITMAP
E0
60
70
30
00
F8
F8
F8
F8
F8
F8
F8
F8
F8
F8
F8
F8
F8
F8
F8
F8
ENDCHAR
STARTCHAR 00CD
ENCODING 205
SWIDTH 315 0
DWIDTH 7 0
BBX 5 21 1 0
BITMAP
38
30
70
60
00
F8
F8
F8
F8
F8
F8
F8
F8
F8
F8
F8
F8
F8
F8
F8
F8
ENDCHAR
STARTCHAR 00CE
ENCODING 206
SWIDTH 315 0
DWIDTH 7 0
BBX 7 21 0 0
BITMAP
38
7C
6C
C6
00
7C
7C
7C
7C
7C
7C
7C
7C
7C
7C
7C
7C
7C
7C
7C
7C
ENDCHAR
STARTCHAR 00CF
ENCODING 207
SWIDTH 315 0
DWIDTH 7 0
BBX 7 21 0 0
BITMAP
44
EE
EE
44
00
7C
7C
7C
7C
7C
7C
7C
7C
7C
7C
7C
7C
7C
7C
7C
7C
ENDCHAR
STARTCHAR 00D0
ENCODING 208
SWIDTH 630 0
DWIDTH 14 0
BBX 14 16 0 0
BITMAP
7E00
7FC0
7FE0
7FF0
7FF8
7CFC
7C7C
FE7C
FE7C
FE7C
7CFC
7DF8
7DF8
7DF0
7DE0
7D80
ENDCHAR
STARTCHAR 00D1
ENCODING 209
SWIDTH 675 0
DWIDTH 15 0
BBX 13 21 1 0
BITMAP
0040
0FC0
1F80
1000
0000
70F8
F8F8
FCF8
FCF8
FEF8
FFF8
FFF8
FFF8
FFF8
FFF8
FFF8
FBF8
FBF8
F9F8
F8F8
F8F0
ENDCHAR
STARTCHAR 00D2
ENCODING 210
SWIDTH 765 0
DWIDTH 17 0
BBX 16 21 1 0
BITMAP
0700
0300
0380
0180
0000
07C0
1FF0
3FF8
7FFC
FFFE
FC7E
F83E
F81F
F81F
F83F
F83E
FFFE
7FFC
3FFC
1FF8
0FE0
ENDCHAR
STARTCHAR 00D3
ENCODING 211
SWIDTH 765 0
DWIDTH 17 0
BBX 16 21 1 0
BITMAP
00C0
01C0
0380
0300
0000
07C0
1FF0
3FF8
7FFC
FFFE
FC7E
F83E
F81F
F81F
F83F
F83E
FFFE
7FFC
3FFC
1FF8
0FE0
ENDCHAR
STARTCHAR 00D4
ENCODING 212
SWIDTH 765 0
DWIDTH 17 0
BBX 16 20 1 0
BITMAP
0380
06C0
0660
0C60
07C0
1FF0
3FF8
7FFC
FFFE
FC7E
F83E
F81F
F81F
F83F
F83E
FFFE
7FFC
3FFC
1FF8
0FE0
ENDCHAR
STARTCHAR 00D5
ENCODING 213
SWIDTH 765 0
DWIDTH 17 0
BBX 16 21 1 0
BITMAP
0020
07E0
0FC0
0800
0000
07C0
1FF0
3FF8
7FFC
FFFE
FC7E
F83E
F81F
F81F
F83F
F83E
FFFE
7FFC
3FFC
1FF8
0FE0
ENDCHAR
STARTCHAR 00D6
ENCODING 214
SWIDTH 765 0
DWIDTH 17 0
BBX 16 21 1 0
BITMAP
0440
0EE0
0EE0
0440
0000
07C0
1FF0
3FF8
7FFC
FFFE
FC7E
F83E
F81F
F81F
F83F
F83E
FFFE
7FFC
3FFC
1FF8
0FE0
ENDCHAR
STARTCHAR 00D7
ENCODING 215
SWIDTH 810 0
DWIDTH 18 0
BBX 13 13 3 0
BITMAP
6030
F078
F8F0
7DE0
3FC0
1F80
0F80
1FC0
3FE0
79F0
F0F8
E078
4030
ENDCHAR
STARTCHAR 00D8
ENCODING 216
SWIDTH 765 0
DWIDTH 17 0
BBX 16 17 1 0
BITMAP
07CE
1FFE
3FFC
7FFC
FFFE
F8FE
F8DE
F1DF
F39F
F71F
FE3E
FC7E
7FFC
3FFC
7FF8
EFE0
4000
ENDCHAR
STARTCHAR 00D9
ENCODING 217
SWIDTH 630 0
DWIDTH 14 0
BBX 12 21 1 0
BITMAP
1C00
0E00
0600
0300
0000
F9F0
F9F0
F9F0
F9F0
F9F0
F9F0
F9F0
F9F0
F9F0
F9F0
F9F0
FFF0
FFF0
7FE0
3FC0
1F80
ENDCHAR
STARTCHAR 00DA
ENCODING 218
SWIDTH 630 0
DWIDTH 14 0
BBX 12 21 1 0
BITMAP
0380
0300
0600
0C00
0000
F9F0
F9F0
F9F0
F9F0
F9F0
F9F0
F9F0
F9F0
F9F0
F9F0
F9F0
FFF0
FFF0
7FE0
3FC0
1F80
ENDCHAR
STARTCHAR 00DB
ENCODING 219
SWIDTH 630 0
DWIDTH 14 0
BBX 12 21 1 0
BITMAP
0F00
0F00
1D80
1880
0000
F9F0
F9F0
F9F0
F9F0
F9F0
F9F0
F9F0
F9F0
F9F0
F9F0
F9F0
FFF0
FFF0
7FE0
3FC0
1F80
ENDCHAR
STARTCHAR 00DC
ENCODING 220
SWIDTH 630 0
DWIDTH 14 0
BBX 12 21 1 0
BITMAP
0880
1DC0
1DC0
0800
0000
F9F0
F9F0
F9F0
F9F0
F9F0
F9F0
F9F0
F9F0
F9F0
F9F0
F9F0
FFF0
FFF0
7FE0
3FC0
1F80
ENDCHAR
STARTCHAR 00DD
ENCODING 221
SWIDTH 540 0
DWIDTH 12 0
BBX 11 21 1 0
BITMAP
0700
0600
0E00
0C00
0000
FBE0
FBE0
FBE0
FBE0
FBE0
FBE0
FFE0
FFE0
7FC0
7FC0
1F00
1F00
1F00
1F00
1F00
1F00
ENDCHAR
STARTCHAR 00DE
ENCODING 222
SWIDTH 585 0
DWIDTH 13 0
BBX 12 16 1 0
BITMAP
F800
F800
FF00
FFC0
FFE0
FFE0
FFF0
F9F0
F9F0
FFE0
FFE0
FFC0
FF80
F800
F800
F800
ENDCHAR
STARTCHAR 00DF
ENCODING 223
SWIDTH 630 0
DWIDTH 14 0
BBX 14 16 0 0
BITMAP
0F80
3FC0
3FE0
7FF0
7DF0
F9E0
F9E0
FBF0
79F8
78F8
787C
787C
7BFC
7BF8
7BF8
7BE0
ENDCHAR
STARTCHAR 00E0
ENCODING 224
SWIDTH 540 0
DWIDTH 12 0
BBX 11 17 1 0
BITMAP
3800
1C00
0C00
0600
0000
0400
3F80
7FC0
FFC0
FFE0
F3E0
F3E0
FBE0
FFE0
FFE0
7FE0
1FE0
ENDCHAR
STARTCHAR 00E1
ENCODING 225
SWIDTH 540 0
DWIDTH 12 0
BBX 11 17 1 0
BITMAP
0380
0700
0E00
0C00
0000
0400
3F80
7FC0
FFC0
FFE0
F3E0
F3E0
FBE0
FFE0
FFE0
7FE0
1FE0
ENDCHAR
STARTCHAR 00E2
ENCODING 226
SWIDTH 540 0
DWIDTH 12 0
BBX 11 17 1 0
BITMAP
0E00
1E00
1B00
3300
0000
0400
3F80
7FC0
FFC0
FFE0
F3E0
F3E0
FBE0
FFE0
FFE0
7FE0
1FE0
ENDCHAR
STARTCHAR 00E3
ENCODING 227
SWIDTH 540 0
DWIDTH 12 0
BBX 11 16 1 0
BITMAP
1980
3F00
2200
0000
0400
3F80
7FC0
FFC0
FFE0
F3E0
F3E0
FBE0
FFE0
FFE0
7FE0
1FE0
ENDCHAR
STARTCHAR 00E4
ENCODING 228
SWIDTH 540 0
DWIDTH 12 0
BBX 11 16 1 0
BITMAP
3B80
3B80
3B00
0000
0400
3F80
7FC0
FFC0
FFE0
F3E0
F3E0
FBE0
FFE0
FFE0
7FE0
1FE0
ENDCHAR
STARTCHAR 00E5
ENCODING 229
SWIDTH 540 0
DWIDTH 12 0
BBX 11 18 1 0
BITMAP
0E00
1F00
1180
1900
1F00
0E00
0400
3F80
7FC0
FFC0
FFE0
F3E0
F3E0
FBE0
FFE0
FFE0
7FE0
3FE0
ENDCHAR
STARTCHAR 00E6
ENCODING 230
SWIDTH 810 0
DWIDTH 18 0
BBX 18 12 0 0
BITMAP
040800
7FBF00
7FFF80
3FFFC0
03E3C0
1FEF80
7FEE00
79E500
F9FBC0
FFFFC0
7FFF80
3F3F00
ENDCHAR
STARTCHAR 00E7
ENCODING 231
SWIDTH 360 0
DWIDTH 8 0
BBX 7 16 1 -5
BITMAP
3E
7E
FE
FE
F0
F0
F8
FE
FE
7E
1E
08
0E
06
26
3E
ENDCHAR
STARTCHAR 00E8
ENCODING 232
SWIDTH 540 0
DWIDTH 12 0
BBX 11 17 1 0
BITMAP
3800
1C00
0C00
0600
0000
0400
3F80
7FC0
FFE0
F3E0
FFC0
F700
F480
FFC0
FFE0
7FC0
1F00
ENDCHAR
STARTCHAR 00E9
ENCODING 233
SWIDTH 540 0
DWIDTH 12 0
BBX 11 17 1 0
BITMAP
0700
0700
0E00
0C00
0000
0400
3F80
7FC0
FFE0
F3E0
FFC0
F700
F480
FFC0
FFE0
7FC0
1F00
ENDCHAR
STARTCHAR 00EA
ENCODING 234
SWIDTH 540 0
DWIDTH 12 0
BBX 11 17 1 0
BITMAP
0E00
1E00
1F00
3300
0000
0400
3F80
7FC0
FFE0
F3E0
FFC0
F700
F480
FFC0
FFE0
7FC0
1F00
ENDCHAR
STARTCHAR 00EB
ENCODING 235
SWIDTH 540 0
DWIDTH 12 0
BBX 11 16 1 0
BITMAP
3300
3B80
3300
0000
0400
3F80
7FC0
FFE0
F3E0
FFC0
F700
F480
FFC0
FFE0
7FC0
1F00
ENDCHAR
STARTCHAR 00EC
ENCODING 236
SWIDTH 270 0
DWIDTH 6 0
BBX 5 17 0 0
BITMAP
E0
60
30
18
00
00
78
78
78
78
78
78
78
78
78
78
78
ENDCHAR
STARTCHAR 00ED
ENCODING 237
SWIDTH 270 0
DWIDTH 6 0
BBX 5 17 1 0
BITMAP
38
38
70
60
00
00
F0
F0
F0
F0
F0
F0
F0
F0
F0
F0
F0
ENDCHAR
STARTCHAR 00EE
ENCODING 238
SWIDTH 270 0
DWIDTH 6 0
BBX 6 17 0 0
BITMAP
38
78
7C
CC
00
00
78
78
78
78
78
78
78
78
78
78
78
ENDCHAR
STARTCHAR 00EF
ENCODING 239
SWIDTH 270 0
DWIDTH 6 0
BBX 7 16 0 0
BITMAP
CC
EE
CC
00
00
78
78
78
78
78
78
78
78
78
78
78
ENDCHAR
STARTCHAR 00F0
ENCODING 240
SWIDTH 495 0
DWIDTH 11 0
BBX 10 16 1 0
BITMAP
7800
3F00
3F80
FE00
7F00
0F00
3F80
7780
FFC0
FBC0
F3C0
F3C0
FFC0
FF80
7F80
3E00
ENDCHAR
STARTCHAR 00F1
ENCODING 241
SWIDTH 540 0
DWIDTH 12 0
BBX 10 16 1 0
BITMAP
1980
3F00
2600
0000
0400
3F00
7F80
FFC0
FFC0
F3C0
F3C0
F3C0
F3C0
F3C0
F3C0
F3C0
ENDCHAR
STARTCHAR 00F2
ENCODING 242
SWIDTH 540 0
DWIDTH 12 0
BBX 11 17 1 0
BITMAP
3800
1C00
0C00
0600
0000
0400
3F00
7FC0
FFC0
FFE0
F3E0
F3E0
FBE0
FFE0
FFC0
7F80
3F00
ENDCHAR
STARTCHAR 00F3
ENCODING 243
SWIDTH 540 0
DWIDTH 12 0
BBX 11 17 1 0
BITMAP
0700
0700
0E00
0C00
0000
0400
3F00
7FC0
FFC0
FFE0
F3E0
F3E0
FBE0
FFE0
FFC0
7F80
3F00
ENDCHAR
STARTCHAR 00F4
ENCODING 244
SWIDTH 540 0
DWIDTH 12 0
BBX 11 17 1 0
BITMAP
0E00
1E00
1F00
3300
0000
0400
3F00
7FC0
FFC0
FFE0
F3E0
F3E0
FBE0
FFE0
FFC0
7F80
3F00
ENDCHAR
STARTCHAR 00F5
ENCODING 245
SWIDTH 540 0
DWIDTH 12 0
BBX 11 16 1 0
BITMAP
1980
3F00
2600
0000
0400
3F00
7FC0
FFC0
FFE0
F3E0
F3E0
FBE0
FFE0
FFC0
7F80
3F00
ENDCHAR
STARTCHAR 00F6
ENCODING 246
SWIDTH 540 0
DWIDTH 12 0
BBX 11 16 1 0
BITMAP
3300
3B80
3300
0000
0400
3F00
7FC0
FFC0
FFE0
F3E0
F3E0
FBE0
FFE0
FFC0
7F80
3F00
ENDCHAR
STARTCHAR 00F7
ENCODING 247
SWIDTH 810 0
DWIDTH 18 0
BBX 13 13 3 0
BITMAP
0700
0F00
0F00
0600
0000
FFF8
FFF8
FFF8
0000
0700
0F00
0F00
0600
ENDCHAR
STARTCHAR 00F8
ENCODING 248
SWIDTH 540 0
DWIDTH 12 0
BBX 11 14 1 -1
BITMAP
04E0
3FC0
7FC0
FFC0
FFE0
F3E0
F3E0
FBE0
FFE0
FFC0
7F80
FF00
C000
4000
ENDCHAR
STARTCHAR 00F9
ENCODING 249
SWIDTH 540 0
DWIDTH 12 0
BBX 10 17 1 0
BITMAP
3800
1800
0C00
0C00
0000
0000
F3C0
F3C0
F3C0
F3C0
F3C0
F3C0
F3C0
FFC0
FFC0
7F80
3F00
ENDCHAR
STARTCHAR 00FA
ENCODING 250
SWIDTH 540 0
DWIDTH 12 0
BBX 10 17 1 0
BITMAP
0700
0600
0E00
0C00
0000
0000
F3C0
F3C0
F3C0
F3C0
F3C0
F3C0
F3C0
FFC0
FFC0
7F80
3F00
ENDCHAR
STARTCHAR 00FB
ENCODING 251
SWIDTH 540 0
DWIDTH 12 0
BBX 10 17 1 0
BITMAP
0E00
1E00
1F00
3300
0000
0000
F3C0
F3C0
F3C0
F3C0
F3C0
F3C0
F3C0
FFC0
FFC0
7F80
3F00
ENDCHAR
STARTCHAR 00FC
ENCODING 252
SWIDTH 540 0
DWIDTH 12 0
BBX 10 16 1 0
BITMAP
3300
3F80
3300
0000
0000
F3C0
F3C0
F3C0
F3C0
F3C0
F3C0
F3C0
FFC0
FFC0
7F80
3F00
ENDCHAR
STARTCHAR 00FD
ENCODING 253
SWIDTH 540 0
DWIDTH 12 0
BBX 10 22 1 -5
BITMAP
0700
0600
0E00
0C00
0000
0000
F3C0
F3C0
F3C0
F3C0
F3C0
F3C0
F3C0
FFC0
FFC0
7F80
3F00
1E00
1E00
1E00
1E00
1E00
ENDCHAR
STARTCHAR 00FE
ENCODING 254
SWIDTH 540 0
DWIDTH 12 0
BBX 11 21 1 -5
BITMAP
F000
F000
F000
F000
F000
FF80
FFC0
FFC0
FFE0
FBE0
F1E0
F3E0
F7E0
F7C0
F7C0
F700
F000
F000
F000
F000
F000
ENDCHAR
STARTCHAR 00FF
ENCODING 255
SWIDTH 540 0
DWIDTH 12 0
BBX 10 21 1 -5
BITMAP
3300
3F80
3300
0000
0000
F3C0
F3C0
F3C0
F3C0
F3C0
F3C0
F3C0
FFC0
FFC0
7F80
3F00
1E00
1E00
1E00
1E00
1E00
ENDCHAR
STARTCHAR 0102
ENCODING 258
SWIDTH 630 0
DWIDTH 14 0
BBX 12 20 1 0
BITMAP
1080
1F80
0F00
0000
0F00
3FC0
7FE0
7FF0
FFF0
F9F0
F9F0
FFF0
FFF0
FFF0
FFF0
F9F0
F9F0
F9F0
F9F0
F9F0
ENDCHAR
STARTCHAR 0103
ENCODING 259
SWIDTH 540 0
DWIDTH 12 0
BBX 11 16 1 0
BITMAP
3180
3F00
1F00
0000
0400
3F80
7FC0
FFC0
FFE0
F3E0
F3E0
FBE0
FFE0
FFE0
7FE0
1FE0
ENDCHAR
STARTCHAR 0110
ENCODING 272
SWIDTH 630 0
DWIDTH 14 0
BBX 14 16 0 0
BITMAP
7E00
7FC0
7FE0
7FF0
7FF8
7CFC
7C7C
FE7C
FE7C
FE7C
7CFC
7DF8
7DF8
7DF0
7DE0
7D80
ENDCHAR
STARTCHAR 0111
ENCODING 273
SWIDTH 540 0
DWIDTH 12 0
BBX 12 16 1 0
BITMAP
03E0
0FF0
0FF0
0FF0
03E0
3FE0
7FE0
FFE0
FFE0
F3E0
F3E0
FBE0
FFE0
FFC0
7F80
3F00
ENDCHAR
STARTCHAR 0128
ENCODING 296
SWIDTH 315 0
DWIDTH 7 0
BBX 7 21 0 0
BITMAP
02
7E
FC
80
00
7C
7C
7C
7C
7C
7C
7C
7C
7C
7C
7C
7C
7C
7C
7C
7C
ENDCHAR
STARTCHAR 0129
ENCODING 297
SWIDTH 270 0
DWIDTH 6 0
BBX 7 16 0 0
BITMAP
66
FC
98
00
00
78
78
78
78
78
78
78
78
78
78
78
ENDCHAR
STARTCHAR 0168
ENCODING 360
SWIDTH 630 0
DWIDTH 14 0
BBX 12 21 1 0
BITMAP
00C0
1F80
1F80
1000
0000
F9F0
F9F0
F9F0
F9F0
F9F0
F9F0
F9F0
F9F0
F9F0
F9F0
F9F0
FFF0
FFF0
7FE0
3FC0
1F80
ENDCHAR
STARTCHAR 0169
ENCODING 361
SWIDTH 540 0
DWIDTH 12 0
BBX 10 16 1 0
BITMAP
1980
3F00
2600
0000
0000
F3C0
F3C0
F3C0
F3C0
F3C0
F3C0
F3C0
FFC0
FFC0
7F80
3F00
ENDCHAR
STARTCHAR 01A0
ENCODING 416
SWIDTH 765 0
DWIDTH 17 0
BBX 16 17 1 0
BITMAP
000F
07CE
1FFE
3FFC
7FFC
FFFE
FC7E
F83E
F81F
F81F
F83F
F83E
FFFE
7FFC
3FFC
1FF8
0FE0
ENDCHAR
STARTCHAR 01A1
ENCODING 417
SWIDTH 540 0
DWIDTH 12 0
BBX 13 13 1 0
BITMAP
0078
0470
3F70
7FE0
FFE0
FFE0
F3E0
F3E0
FBE0
FFE0
FFC0
7F80
3F00
ENDCHAR
STARTCHAR 01AF
ENCODING 431
SWIDTH 675 0
DWIDTH 15 0
BBX 15 17 1 0
BITMAP
000E
F9FE
F9FC
F9FC
F9F8
F9F0
F9F0
F9F0
F9F0
F9F0
F9F0
F9F0
FFF0
FFF0
7FE0
3FC0
1F80
ENDCHAR
STARTCHAR 01B0
ENCODING 432
SWIDTH 585 0
DWIDTH 13 0
BBX 13 13 1 0
BITMAP
0038
0078
F3F0
F3F0
F3E0
F3C0
F3C0
F3C0
F3C0
FFC0
FFC0
7F80
3F00
ENDCHAR
STARTCHAR 1EA0
ENCODING 7840
SWIDTH 630 0
DWIDTH 14 0
BBX 12 22 1 -6
BITMAP
0F00
3FC0
7FE0
7FF0
FFF0
F9F0
F9F0
FFF0
FFF0
FFF0
FFF0
F9F0
F9F0
F9F0
F9F0
F9F0
0000
0600
0F00
0F80
0F80
0F00
ENDCHAR
STARTCHAR 1EA1
ENCODING 7841
SWIDTH 540 0
DWIDTH 12 0
BBX 11 18 1 -6
BITMAP
0400
3F80
7FC0
FFC0
FFE0
F3E0
F3E0
FBE0
FFE0
FFE0
7FE0
1FE0
0000
0400
1E00
1F00
1F00
1E00
ENDCHAR
STARTCHAR 1EA2
ENCODING 7842
SWIDTH 630 0
DWIDTH 14 0
BBX 12 21 1 0
BITMAP
0700
0D80
0180
0300
0200
0F00
3FC0
7FE0
7FF0
FFF0
F9F0
F9F0
FFF0
FFF0
FFF0
FFF0
F9F0
F9F0
F9F0
F9F0
F9F0
ENDCHAR
STARTCHAR 1EA3
ENCODING 7843
SWIDTH 540 0
DWIDTH 12 0
BBX 11 17 1 0
BITMAP
0E00
1F00
0300
0600
0400
0400
3F80
7FC0
FFC0
FFE0
F3E0
F3E0
FBE0
FFE0
FFE0
7FE0
1FE0
ENDCHAR
STARTCHAR 1EA4
ENCODING 7844
SWIDTH 630 0
DWIDTH 14 0
BBX 12 25 1 0
BITMAP
0700
0600
0E00
0C00
0000
0F00
0F80
1980
10C0
0F00
3FC0
7FE0
7FF0
FFF0
F9F0
F9F0
FFF0
FFF0
FFF0
FFF0
F9F0
F9F0
F9F0
F9F0
F9F0
ENDCHAR
STARTCHAR 1EA5
ENCODING 7845
SWIDTH 540 0
DWIDTH 12 0
BBX 11 21 1 0
BITMAP
0E00
0E00
1C00
1800
0E00
1E00
1B00
3300
0000
0400
3F80
7FC0
FFC0
FFE0
F3E0
F3E0
FBE0
FFE0
FFE0
7FE0
1FE0
ENDCHAR
STARTCHAR 1EA6
ENCODING 7846
SWIDTH 630 0
DWIDTH 14 0
BBX 12 25 1 0
BITMAP
0E00
0600
0300
0100
0000
0F00
0F80
1980
10C0
0F00
3FC0
7FE0
7FF0
FFF0
F9F0
F9F0
FFF0
FFF0
FFF0
FFF0
F9F0
F9F0
F9F0
F9F0
F9F0
ENDCHAR
STARTCHAR 1EA7
ENCODING 7847
SWIDTH 540 0
DWIDTH 12 0
BBX 11 21 1 0
BITMAP
1C00
0E00
0600
0300
0E00
1E00
1B00
3300
0000
0400
3F80
7FC0
FFC0
FFE0
F3E0
F3E0
FBE0
FFE0
FFE0
7FE0
1FE0
ENDCHAR
STARTCHAR 1EA8
ENCODING 7848
SWIDTH 630 0
DWIDTH 14 0
BBX 12 25 1 0
BITMAP
00C0
01E0
0030
0060
0040
0F00
0F80
1980
10C0
0F00
3FC0
7FE0
7FF0
FFF0
F9F0
F9F0
FFF0
FFF0
FFF0
FFF0
F9F0
F9F0
F9F0
F9F0
F9F0
ENDCHAR
STARTCHAR 1EA9
ENCODING 7849
SWIDTH 540 0
DWIDTH 12 0
BBX 11 21 1 0
BITMAP
01C0
03E0
0160
00C0
0E80
1E00
1B00
3300
0000
0400
3F80
7FC0
FFC0
FFE0
F3E0
F3E0
FBE0
FFE0
FFE0
7FE0
1FE0
ENDCHAR
STARTCHAR 1EAA
ENCODING 7850
SWIDTH 630 0
DWIDTH 14 0
BBX 12 24 1 0
BITMAP
0E40
0FC0
1800
0000
0F00
0F80
1980
10C0
0F00
3FC0
7FE0
7FF0
FFF0
F9F0
F9F0
FFF0
FFF0
FFF0
FFF0
F9F0
F9F0
F9F0
F9F0
F9F0
ENDCHAR
STARTCHAR 1EAB
ENCODING 7851
SWIDTH 540 0
DWIDTH 12 0
BBX 11 20 1 0
BITMAP
1E80
1F80
3000
0E00
1E00
1B00
3300
0000
0400
3F80
7FC0
FFC0
FFE0
F3E0
F3E0
FBE0
FFE0
FFE0
7FE0
1FE0
ENDCHAR
STARTCHAR 1EAC
ENCODING 7852
SWIDTH 630 0
DWIDTH 14 0
BBX 12 26 1 -6
BITMAP
0F00
0F80
1980
10C0
0F00
3FC0
7FE0
7FF0
FFF0
F9F0
F9F0
FFF0
FFF0
FFF0
FFF0
F9F0
F9F0
F9F0
F9F0
F9F0
0000
0600
0F00
0F80
0F80
0F00
ENDCHAR
STARTCHAR 1EAD
ENCODING 7853
SWIDTH 540 0
DWIDTH 12 0
BBX 11 23 1 -6
BITMAP
0E00
1E00
1B00
3300
0000
0400
3F80
7FC0
FFC0
FFE0
F3E0
F3E0
FBE0
FFE0
FFE0
7FE0
1FE0
0000
0400
1E00
1F00
1F00
1E00
ENDCHAR
STARTCHAR 1EAE
ENCODING 7854
SWIDTH 630 0
DWIDTH 14 0
BBX 12 25 1 0
BITMAP
0380
0300
0600
0600
0000
1080
1F80
0F00
0000
0F00
3FC0
7FE0
7FF0
FFF0
F9F0
F9F0
FFF0
FFF0
FFF0
FFF0
F9F0
F9F0
F9F0
F9F0
F9F0
ENDCHAR
STARTCHAR 1EAF
ENCODING 7855
SWIDTH 540 0
DWIDTH 12 0
BBX 11 21 1 0
BITMAP
0700
0700
0E00
0C00
0000
3180
3F00
1F00
0000
0400
3F80
7FC0
FFC0
FFE0
F3E0
F3E0
FBE0
FFE0
FFE0
7FE0
1FE0
ENDCHAR
STARTCHAR 1EB0
ENCODING 7856
SWIDTH 630 0
DWIDTH 14 0
BBX 12 25 1 0
BITMAP
1C00
0C00
0600
0200
0000
1080
1F80
0F00
0000
0F00
3FC0
7FE0
7FF0
FFF0
F9F0
F9F0
FFF0
FFF0
FFF0
FFF0
F9F0
F9F0
F9F0
F9F0
F9F0
ENDCHAR
STARTCHAR 1EB1
ENCODING 7857
SWIDTH 540 0
DWIDTH 12 0
BBX 11 21 1 0
BITMAP
3800
1C00
0C00
0600
0000
3180
3F00
1F00
0000
0400
3F80
7FC0
FFC0
FFE0
F3E0
F3E0
FBE0
FFE0
FFE0
7FE0
1FE0
ENDCHAR
STARTCHAR 1EB2
ENCODING 7858
SWIDTH 630 0
DWIDTH 14 0
BBX 12 25 1 0
BITMAP
0600
0F00
0900
0700
0600
1080
1F80
0F00
0000
0F00
3FC0
7FE0
7FF0
FFF0
F9F0
F9F0
FFF0
FFF0
FFF0
FFF0
F9F0
F9F0
F9F0
F9F0
F9F0
ENDCHAR
STARTCHAR 1EB3
ENCODING 7859
SWIDTH 540 0
DWIDTH 12 0
BBX 11 21 1 0
BITMAP
0E00
1E00
0B00
0600
0400
3180
3F00
1F00
0000
0400
3F80
7FC0
FFC0
FFE0
F3E0
F3E0
FBE0
FFE0
FFE0
7FE0
1FE0
ENDCHAR
STARTCHAR 1EB4
ENCODING 7860
SWIDTH 630 0
DWIDTH 14 0
BBX 12 24 1 0
BITMAP
0EC0
1F80
1000
0000
1080
1F80
0F00
0000
0F00
3FC0
7FE0
7FF0
FFF0
F9F0
F9F0
FFF0
FFF0
FFF0
FFF0
F9F0
F9F0
F9F0
F9F0
F9F0
ENDCHAR
STARTCHAR 1EB5
ENCODING 7861
SWIDTH 540 0
DWIDTH 12 0
BBX 11 20 1 0
BITMAP
1D80
3F00
2000
0000
3180
3F00
1F00
0000
0400
3F80
7FC0
FFC0
FFE0
F3E0
F3E0
FBE0
FFE0
FFE0
7FE0
1FE0
ENDCHAR
STARTCHAR 1EB6
ENCODING 7862
SWIDTH 630 0
DWIDTH 14 0
BBX 12 26 1 -6
BITMAP
1080
1F80
0F00
0000
0F00
3FC0
7FE0
7FF0
FFF0
F9F0
F9F0
FFF0
FFF0
FFF0
FFF0
F9F0
F9F0
F9F0
F9F0
F9F0
0000
0600
0F00
0F80
0F80
0F00
ENDCHAR
STARTCHAR 1EB7
ENCODING 7863
SWIDTH 540 0
DWIDTH 12 0
BBX 11 22 1 -6
BITMAP
3180
3F00
1F00
0000
0400
3F80
7FC0
FFC0
FFE0
F3E0
F3E0
FBE0
FFE0
FFE0
7FE0
1FE0
0000
0400
1E00
1F00
1F00
1E00
ENDCHAR
STARTCHAR 1EB8
ENCODING 7864
SWIDTH 495 0
DWIDTH 11 0
BBX 10 22 1 -6
BITMAP
00C0
0FC0
3FC0
7FC0
7FC0
FC00
FFC0
FFC0
FFC0
FFC0
F800
FE00
7FC0
3FC0
1FC0
07C0
0000
0200
0F80
0F80
0F80
0F80
ENDCHAR
STARTCHAR 1EB9
ENCODING 7865
SWIDTH 540 0
DWIDTH 12 0
BBX 11 18 1 -6
BITMAP
0400
3F80
7FC0
FFE0
F3E0
FFC0
F700
F480
FFC0
FFE0
7FC0
1F00
0000
0400
1E00
1F00
1F00
1E00
ENDCHAR
STARTCHAR 1EBA
ENCODING 7866
SWIDTH 495 0
DWIDTH 11 0
BBX 10 21 1 0
BITMAP
0380
06C0
00C0
0180
0100
00C0
0FC0
3FC0
7FC0
7FC0
FC00
FFC0
FFC0
FFC0
FFC0
F800
FE00
7FC0
3FC0
1FC0
07C0
ENDCHAR
STARTCHAR 1EBB
ENCODING 7867
SWIDTH 540 0
DWIDTH 12 0
BBX 11 17 1 0
BITMAP
0E00
1F00
0300
0600
0400
0400
3F80
7FC0
FFE0
F3E0
FFC0
F700
F480
FFC0
FFE0
7FC0
1F00
ENDCHAR
STARTCHAR 1EBC
ENCODING 7868
SWIDTH 495 0
DWIDTH 11 0
BBX 10 21 1 0
BITMAP
0040
0FC0
1F80
1000
0000
00C0
0FC0
3FC0
7FC0
7FC0
FC00
FFC0
FFC0
FFC0
FFC0
F800
FE00
7FC0
3FC0
1FC0
07C0
ENDCHAR
STARTCHAR 1EBD
ENCODING 7869
SWIDTH 540 0
DWIDTH 12 0
BBX 11 16 1 0
BITMAP
1980
3F00
2600
0000
0400
3F80
7FC0
FFE0
F3E0
FFC0
F700
F480
FFC0
FFE0
7FC0
1F00
ENDCHAR
STARTCHAR 1EBE
ENCODING 7870
SWIDTH 495 0
DWIDTH 11 0
BBX 10 25 1 0
BITMAP
0380
0700
0600
0C00
0000
0700
0D80
0980
18C0
00C0
0FC0
3FC0
7FC0
7FC0
FC00
FFC0
FFC0
FFC0
FFC0
F800
FE00
7FC0
3FC0
1FC0
07C0
ENDCHAR
STARTCHAR 1EBF
ENCODING 7871
SWIDTH 540 0
DWIDTH 12 0
BBX 11 21 1 0
BITMAP
0E00
0C00
1C00
1800
0E00
1E00
1F00
3300
0000
0400
3F80
7FC0
FFE0
F3E0
FFC0
F700
F480
FFC0
FFE0
7FC0
1F00
ENDCHAR
STARTCHAR 1EC0
ENCODING 7872
SWIDTH 495 0
DWIDTH 11 0
BBX 10 25 1 0
BITMAP
0E00
0700
0300
0180
0000
0700
0D80
0980
18C0
00C0
0FC0
3FC0
7FC0
7FC0
FC00
FFC0
FFC0
FFC0
FFC0
F800
FE00
7FC0
3FC0
1FC0
07C0
ENDCHAR
STARTCHAR 1EC1
ENCODING 7873
SWIDTH 540 0
DWIDTH 12 0
BBX 11 21 1 0
BITMAP
1C00
0E00
0600
0300
0E00
1E00
1F00
3300
0000
0400
3F80
7FC0
FFE0
F3E0
FFC0
F700
F480
FFC0
FFE0
7FC0
1F00
ENDCHAR
STARTCHAR 1EC2
ENCODING 7874
SWIDTH 495 0
DWIDTH 11 0
BBX 12 25 1 0
BITMAP
00E0
00F0
00B0
0070
0060
0700
0D80
0980
18C0
00C0
0FC0
3FC0
7FC0
7FC0
FC00
FFC0
FFC0
FFC0
FFC0
F800
FE00
7FC0
3FC0
1FC0
07C0
ENDCHAR
STARTCHAR 1EC3
ENCODING 7875
SWIDTH 540 0
DWIDTH 12 0
BBX 11 21 1 0
BITMAP
01C0
03C0
0160
00C0
0E80
1E00
1F00
3300
0000
0400
3F80
7FC0
FFE0
F3E0
FFC0
F700
F480
FFC0
FFE0
7FC0
1F00
ENDCHAR
STARTCHAR 1EC4
ENCODING 7876
SWIDTH 495 0
DWIDTH 11 0
BBX 10 24 1 0
BITMAP
0640
0FC0
1800
0000
0700
0D80
0980
18C0
00C0
0FC0
3FC0
7FC0
7FC0
FC00
FFC0
FFC0
FFC0
FFC0
F800
FE00
7FC0
3FC0
1FC0
07C0
ENDCHAR
STARTCHAR 1EC5
ENCODING 7877
SWIDTH 540 0
DWIDTH 12 0
BBX 11 20 1 0
BITMAP
1E80
1F80
3000
0E00
1E00
1F00
3300
0000
0400
3F80
7FC0
FFE0
F3E0
FFC0
F700
F480
FFC0
FFE0
7FC0
1F00
ENDCHAR
STARTCHAR 1EC6
ENCODING 7878
SWIDTH 495 0
DWIDTH 11 0
BBX 10 26 1 -6
BITMAP
0700
0D80
0980
18C0
00C0
0FC0
3FC0
7FC0
7FC0
FC00
FFC0
FFC0
FFC0
FFC0
F800
FE00
7FC0
3FC0
1FC0
07C0
0000
0200
0F80
0F80
0F80
0F80
ENDCHAR
STARTCHAR 1EC7
ENCODING 7879
SWIDTH 540 0
DWIDTH 12 0
BBX 11 23 1 -6
BITMAP
0E00
1E00
1F00
3300
0000
0400
3F80
7FC0
FFE0
F3E0
FFC0
F700
F480
FFC0
FFE0
7FC0
1F00
0000
0400
1E00
1F00
1F00
1E00
ENDCHAR
STARTCHAR 1EC8
ENCODING 7880
SWIDTH 315 0
DWIDTH 7 0
BBX 5 21 1 0
BITMAP
70
D8
18
30
20
F8
F8
F8
F8
F8
F8
F8
F8
F8
F8
F8
F8
F8
F8
F8
F8
ENDCHAR
STARTCHAR 1EC9
ENCODING 7881
SWIDTH 270 0
DWIDTH 6 0
BBX 4 17 1 0
BITMAP
70
F0
10
70
40
00
F0
F0
F0
F0
F0
F0
F0
F0
F0
F0
F0
ENDCHAR
STARTCHAR 1ECA
ENCODING 7882
SWIDTH 315 0
DWIDTH 7 0
BBX 5 22 1 -6
BITMAP
F8
F8
F8
F8
F8
F8
F8
F8
F8
F8
F8
F8
F8
F8
F8
F8
00
20
F8
F8
F8
F8
ENDCHAR
STARTCHAR 1ECB
ENCODING 7883
SWIDTH 270 0
DWIDTH 6 0
BBX 6 23 0 -6
BITMAP
78
7C
FC
78
38
00
78
78
78
78
78
78
78
78
78
78
78
00
30
78
7C
7C
78
ENDCHAR
STARTCHAR 1ECC
ENCODING 7884
SWIDTH 765 0
DWIDTH 17 0
BBX 16 22 1 -6
BITMAP
07C0
1FF0
3FF8
7FFC
FFFE
FC7E
F83E
F81F
F81F
F83F
F83E
FFFE
7FFC
3FFC
1FF8
0FE0
0000
0100
07C0
07C0
07C0
03C0
ENDCHAR
STARTCHAR 1ECD
ENCODING 7885
SWIDTH 540 0
DWIDTH 12 0
BBX 11 18 1 -6
BITMAP
0400
3F00
7FC0
FFC0
FFE0
F3E0
F3E0
FBE0
FFE0
FFC0
7F80
3F00
0000
0C00
1E00
1F00
1F00
1E00
ENDCHAR
STARTCHAR 1ECE
ENCODING 7886
SWIDTH 765 0
DWIDTH 17 0
BBX 16 21 1 0
BITMAP
0380
02C0
00C0
0180
0100
07C0
1FF0
3FF8
7FFC
FFFE
FC7E
F83E
F81F
F81F
F83F
F83E
FFFE
7FFC
3FFC
1FF8
0FE0
ENDCHAR
STARTCHAR 1ECF
ENCODING 7887
SWIDTH 540 0
DWIDTH 12 0
BBX 11 17 1 0
BITMAP
0E00
1F00
0300
0600
0400
0400
3F00
7FC0
FFC0
FFE0
F3E0
F3E0
FBE0
FFE0
FFC0
7F80
3F00
ENDCHAR
STARTCHAR 1ED0
ENCODING 7888
SWIDTH 765 0
DWIDTH 17 0
BBX 16 25 1 0
BITMAP
01C0
0380
0300
0600
0000
0380
06C0
0660
0C60
07C0
1FF0
3FF8
7FFC
FFFE
FC7E
F83E
F81F
F81F
F83F
F83E
FFFE
7FFC
3FFC
1FF8
0FE0
ENDCHAR
STARTCHAR 1ED1
ENCODING 7889
SWIDTH 540 0
DWIDTH 12 0
BBX 11 21 1 0
BITMAP
0E00
0C00
1C00
1800
0E00
1E00
1F00
3300
0000
0400
3F00
7FC0
FFC0
FFE0
F3E0
F3E0
FBE0
FFE0
FFC0
7F80
3F00
ENDCHAR
STARTCHAR 1ED2
ENCODING 7890
SWIDTH 765 0
DWIDTH 17 0
BBX 16 25 1 0
BITMAP
0700
0380
0180
00C0
0000
0380
06C0
0660
0C60
07C0
1FF0
3FF8
7FFC
FFFE
FC7E
F83E
F81F
F81F
F83F
F83E
FFFE
7FFC
3FFC
1FF8
0FE0
ENDCHAR
STARTCHAR 1ED3
ENCODING 7891
SWIDTH 540 0
DWIDTH 12 0
BBX 11 21 1 0
BITMAP
1C00
0E00
0600
0300
0E00
1E00
1F00
3300
0000
0400
3F00
7FC0
FFC0
FFE0
F3E0
F3E0
FBE0
FFE0
FFC0
7F80
3F00
ENDCHAR
STARTCHAR 1ED4
ENCODING 7892
SWIDTH 765 0
DWIDTH 17 0
BBX 16 25 1 0
BITMAP
0030
0078
0058
0038
0030
0380
06C0
0660
0C60
07C0
1FF0
3FF8
7FFC
FFFE
FC7E
F83E
F81F
F81F
F83F
F83E
FFFE
7FFC
3FFC
1FF8
0FE0
ENDCHAR
STARTCHAR 1ED5
ENCODING 7893
SWIDTH 540 0
DWIDTH 12 0
BBX 11 21 1 0
BITMAP
01C0
03C0
0160
00C0
0E80
1E00
1F00
3300
0000
0400
3F00
7FC0
FFC0
FFE0
F3E0
F3E0
FBE0
FFE0
FFC0
7F80
3F00
ENDCHAR
STARTCHAR 1ED6
ENCODING 7894
SWIDTH 765 0
DWIDTH 17 0
BBX 16 24 1 0
BITMAP
03B0
07E0
0400
0000
0380
06C0
0660
0C60
07C0
1FF0
3FF8
7FFC
FFFE
FC7E
F83E
F81F
F81F
F83F
F83E
FFFE
7FFC
3FFC
1FF8
0FE0
ENDCHAR
STARTCHAR 1ED7
ENCODING 7895
SWIDTH 540 0
DWIDTH 12 0
BBX 11 20 1 0
BITMAP
1F80
1F80
3000
0E00
1E00
1F00
3300
0000
0400
3F00
7FC0
FFC0
FFE0
F3E0
F3E0
FBE0
FFE0
FFC0
7F80
3F00
ENDCHAR
STARTCHAR 1ED8
ENCODING 7896
SWIDTH 765 0
DWIDTH 17 0
BBX 16 26 1 -6
BITMAP
0380
06C0
0660
0C60
07C0
1FF0
3FF8
7FFC
FFFE
FC7E
F83E
F81F
F81F
F83F
F83E
FFFE
7FFC
3FFC
1FF8
0FE0
0000
0100
07C0
07C0
07C0
03C0
ENDCHAR
STARTCHAR 1ED9
ENCODING 7897
SWIDTH 540 0
DWIDTH 12 0
BBX 11 23 1 -6
BITMAP
0E00
1E00
1F00
3300
0000
0400
3F00
7FC0
FFC0
FFE0
F3E0
F3E0
FBE0
FFE0
FFC0
7F80
3F00
0000
0C00
1E00
1F00
1F00
1E00
ENDCHAR
STARTCHAR 1EDA
ENCODING 7898
SWIDTH 765 0
DWIDTH 17 0
BBX 16 21 1 0
BITMAP
00C0
01C0
0380
0300
000F
07CE
1FFE
3FFC
7FFC
FFFE
FC7E
F83E
F81F
F81F
F83F
F83E
FFFE
7FFC
3FFC
1FF8
0FE0
ENDCHAR
STARTCHAR 1EDB
ENCODING 7899
SWIDTH 540 0
DWIDTH 12 0
BBX 13 17 1 0
BITMAP
0700
0700
0E00
0C00
0078
0470
3F70
7FE0
FFE0
FFE0
F3E0
F3E0
FBE0
FFE0
FFC0
7F80
3F00
ENDCHAR
STARTCHAR 1EDC
ENCODING 7900
SWIDTH 765 0
DWIDTH 17 0
BBX 16 21 1 0
BITMAP
0700
0300
0380
0180
000F
07CE
1FFE
3FFC
7FFC
FFFE
FC7E
F83E
F81F
F81F
F83F
F83E
FFFE
7FFC
3FFC
1FF8
0FE0
ENDCHAR
STARTCHAR 1EDD
ENCODING 7901
SWIDTH 540 0
DWIDTH 12 0
BBX 13 17 1 0
BITMAP
3800
1C00
0C00
0600
0078
0470
3F70
7FE0
FFE0
FFE0
F3E0
F3E0
FBE0
FFE0
FFC0
7F80
3F00
ENDCHAR
STARTCHAR 1EDE
ENCODING 7902
SWIDTH 765 0
DWIDTH 17 0
BBX 16 21 1 0
BITMAP
0380
02C0
00C0
0180
010F
07CE
1FFE
3FFC
7FFC
FFFE
FC7E
F83E
F81F
F81F
F83F
F83E
FFFE
7FFC
3FFC
1FF8
0FE0
ENDCHAR
STARTCHAR 1EDF
ENCODING 7903
SWIDTH 540 0
DWIDTH 12 0
BBX 13 17 1 0
BITMAP
0E00
1F00
0300
0600
0478
0470
3F70
7FE0
FFE0
FFE0
F3E0
F3E0
FBE0
FFE0
FFC0
7F80
3F00
ENDCHAR
STARTCHAR 1EE0
ENCODING 7904
SWIDTH 765 0
DWIDTH 17 0
BBX 16 21 1 0
BITMAP
0020
07E0
0FC0
0800
000F
07CE
1FFE
3FFC
7FFC
FFFE
FC7E
F83E
F81F
F81F
F83F
F83E
FFFE
7FFC
3FFC
1FF8
0FE0
ENDCHAR
STARTCHAR 1EE1
ENCODING 7905
SWIDTH 540 0
DWIDTH 12 0
BBX 13 16 1 0
BITMAP
1980
3F00
2600
0078
0470
3F70
7FE0
FFE0
FFE0
F3E0
F3E0
FBE0
FFE0
FFC0
7F80
3F00
ENDCHAR
STARTCHAR 1EE2
ENCODING 7906
SWIDTH 765 0
DWIDTH 17 0
BBX 16 23 1 -6
BITMAP
000F
07CE
1FFE
3FFC
7FFC
FFFE
FC7E
F83E
F81F
F81F
F83F
F83E
FFFE
7FFC
3FFC
1FF8
0FE0
0000
0100
07C0
07C0
07C0
03C0
ENDCHAR
STARTCHAR 1EE3
ENCODING 7907
SWIDTH 540 0
DWIDTH 12 0
BBX 13 19 1 -6
BITMAP
0078
0470
3F70
7FE0
FFE0
FFE0
F3E0
F3E0
FBE0
FFE0
FFC0
7F80
3F00
0000
0C00
1E00
1F00
1F00
1E00
ENDCHAR
STARTCHAR 1EE4
ENCODING 7908
SWIDTH 630 0
DWIDTH 14 0
BBX 12 22 1 -6
BITMAP
F9F0
F9F0
F9F0
F9F0
F9F0
F9F0
F9F0
F9F0
F9F0
F9F0
F9F0
FFF0
FFF0
7FE0
3FC0
1F80
0000
0600
0F00
0F80
0F80
0F00
ENDCHAR
STARTCHAR 1EE5
ENCODING 7909
SWIDTH 540 0
DWIDTH 12 0
BBX 10 17 1 -6
BITMAP
F3C0
F3C0
F3C0
F3C0
F3C0
F3C0
F3C0
FFC0
FFC0
7F80
3F00
0000
0C00
1E00
1F00
1F00
1E00
ENDCHAR
STARTCHAR 1EE6
ENCODING 7910
SWIDTH 630 0
DWIDTH 14 0
BBX 12 21 1 0
BITMAP
0700
0D80
0180
0300
0200
F9F0
F9F0
F9F0
F9F0
F9F0
F9F0
F9F0
F9F0
F9F0
F9F0
F9F0
FFF0
FFF0
7FE0
3FC0
1F80
ENDCHAR
STARTCHAR 1EE7
ENCODING 7911
SWIDTH 540 0
DWIDTH 12 0
BBX 10 17 1 0
BITMAP
0E00
1E00
0200
0600
0400
0000
F3C0
F3C0
F3C0
F3C0
F3C0
F3C0
F3C0
FFC0
FFC0
7F80
3F00
ENDCHAR
STARTCHAR 1EE8
ENCODING 7912
SWIDTH 675 0
DWIDTH 15 0
BBX 15 21 1 0
BITMAP
0380
0300
0600
0C00
000E
F9FE
F9FC
F9FC
F9F8
F9F0
F9F0
F9F0
F9F0
F9F0
F9F0
F9F0
FFF0
FFF0
7FE0
3FC0
1F80
ENDCHAR
STARTCHAR 1EE9
ENCODING 7913
SWIDTH 585 0
DWIDTH 13 0
BBX 13 17 1 0
BITMAP
0700
0600
0E00
0C00
0038
0078
F3F0
F3F0
F3E0
F3C0
F3C0
F3C0
F3C0
FFC0
FFC0
7F80
3F00
ENDCHAR
STARTCHAR 1EEA
ENCODING 7914
SWIDTH 675 0
DWIDTH 15 0
BBX 15 21 1 0
BITMAP
1C00
0E00
0600
0300
000E
F9FE
F9FC
F9FC
F9F8
F9F0
F9F0
F9F0
F9F0
F9F0
F9F0
F9F0
FFF0
FFF0
7FE0
3FC0
1F80
ENDCHAR
STARTCHAR 1EEB
ENCODING 7915
SWIDTH 585 0
DWIDTH 13 0
BBX 13 17 1 0
BITMAP
3800
1800
0C00
0C00
0038
0078
F3F0
F3F0
F3E0
F3C0
F3C0
F3C0
F3C0
FFC0
FFC0
7F80
3F00
ENDCHAR
STARTCHAR 1EEC
ENCODING 7916
SWIDTH 675 0
DWIDTH 15 0
BBX 15 21 1 0
BITMAP
0700
0D80
0180
0300
020E
F9FE
F9FC
F9FC
F9F8
F9F0
F9F0
F9F0
F9F0
F9F0
F9F0
F9F0
FFF0
FFF0
7FE0
3FC0
1F80
ENDCHAR
STARTCHAR 1EED
ENCODING 7917
SWIDTH 585 0
DWIDTH 13 0
BBX 13 17 1 0
BITMAP
0E00
1E00
0200
0600
0438
0078
F3F0
F3F0
F3E0
F3C0
F3C0
F3C0
F3C0
FFC0
FFC0
7F80
3F00
ENDCHAR
STARTCHAR 1EEE
ENCODING 7918
SWIDTH 675 0
DWIDTH 15 0
BBX 15 21 1 0
BITMAP
00C0
1F80
1F80
1000
000E
F9FE
F9FC
F9FC
F9F8
F9F0
F9F0
F9F0
F9F0
F9F0
F9F0
F9F0
FFF0
FFF0
7FE0
3FC0
1F80
ENDCHAR
STARTCHAR 1EEF
ENCODING 7919
SWIDTH 585 0
DWIDTH 13 0
BBX 13 16 1 0
BITMAP
1980
3F00
2600
0038
0078
F3F0
F3F0
F3E0
F3C0
F3C0
F3C0
F3C0
FFC0
FFC0
7F80
3F00
ENDCHAR
STARTCHAR 1EF0
ENCODING 7920
SWIDTH 675 0
DWIDTH 15 0
BBX 15 23 1 -6
BITMAP
000E
F9FE
F9FC
F9FC
F9F8
F9F0
F9F0
F9F0
F9F0
F9F0
F9F0
F9F0
FFF0
FFF0
7FE0
3FC0
1F80
0000
0600
0F00
0F80
0F80
0F00
ENDCHAR
STARTCHAR 1EF1
ENCODING 7921
SWIDTH 585 0
DWIDTH 13 0
BBX 13 19 1 -6
BITMAP
0038
0078
F3F0
F3F0
F3E0
F3C0
F3C0
F3C0
F3C0
FFC0
FFC0
7F80
3F00
0000
0C00
1E00
1F00
1F00
1E00
ENDCHAR
STARTCHAR 1EF2
ENCODING 7922
SWIDTH 540 0
DWIDTH 12 0
BBX 11 21 1 0
BITMAP
3800
1C00
0C00
0600
0000
FBE0
FBE0
FBE0
FBE0
FBE0
FBE0
FFE0
FFE0
7FC0
7FC0
1F00
1F00
1F00
1F00
1F00
1F00
ENDCHAR
STARTCHAR 1EF3
ENCODING 7923
SWIDTH 540 0
DWIDTH 12 0
BBX 10 22 1 -5
BITMAP
3800
1800
0C00
0C00
0000
0000
F3C0
F3C0
F3C0
F3C0
F3C0
F3C0
F3C0
FFC0
FFC0
7F80
3F00
1E00
1E00
1E00
1E00
1E00
ENDCHAR
STARTCHAR 1EF4
ENCODING 7924
SWIDTH 540 0
DWIDTH 12 0
BBX 11 22 1 -6
BITMAP
FBE0
FBE0
FBE0
FBE0
FBE0
FBE0
FFE0
FFE0
7FC0
7FC0
1F00
1F00
1F00
1F00
1F00
1F00
0000
0400
1F00
1F00
1F00
1F00
ENDCHAR
STARTCHAR 1EF5
ENCODING 7925
SWIDTH 540 0
DWIDTH 12 0
BBX 11 17 1 -6
BITMAP
F3C0
F3C0
F3C0
F3C0
F3C0
F3C0
F3C0
FFC0
FFC0
7F80
3F00
1E00
1E80
1FE0
1FE0
1FE0
03C0
ENDCHAR
STARTCHAR 1EF6
ENCODING 7926
SWIDTH 540 0
DWIDTH 12 0
BBX 11 21 1 0
BITMAP
0E00
1B00
0300
0600
0400
FBE0
FBE0
FBE0
FBE0
FBE0
FBE0
FFE0
FFE0
7FC0
7FC0
1F00
1F00
1F00
1F00
1F00
1F00
ENDCHAR
STARTCHAR 1EF7
ENCODING 7927
SWIDTH 540 0
DWIDTH 12 0
BBX 10 22 1 -5
BITMAP
0E00
1E00
0200
0600
0400
0000
F3C0
F3C0
F3C0
F3C0
F3C0
F3C0
F3C0
FFC0
FFC0
7F80
3F00
1E00
1E00
1E00
1E00
1E00
ENDCHAR
STARTCHAR 1EF8
ENCODING 7928
SWIDTH 540 0
DWIDTH 12 0
BBX 11 21 1 0
BITMAP
0080
1F80
3F00
2000
0000
FBE0
FBE0
FBE0
FBE0
FBE0
FBE0
FFE0
FFE0
7FC0
7FC0
1F00
1F00
1F00
1F00
1F00
1F00
ENDCHAR
STARTCHAR 1EF9
ENCODING 7929
SWIDTH 540 0
DWIDTH 12 0
BBX 10 21 1 -5
BITMAP
1980
3F00
2600
0000
0000
F3C0
F3C0
F3C0
F3C0
F3C0
F3C0
F3C0
FFC0
FFC0
7F80
3F00
1E00
1E00
1E00
1E00
1E00
ENDCHAR
ENDFONT
